<svg width="192" height="136" viewBox="0 0 192 136" fill="none" xmlns="http://www.w3.org/2000/svg">
<path fill-rule="evenodd" clip-rule="evenodd" d="M143.925 36.4661C149.398 37.396 148.361 46.0194 147.96 51.3048C147.647 55.4386 147.087 59.5549 146.341 63.6325C145.675 67.2694 144.919 70.9158 143.96 74.4874C143.255 77.112 142.502 79.7301 141.657 82.3135C140.712 85.2006 139.424 88.0597 137.406 90.364C135.771 92.2316 133.812 93.756 131.658 94.9807C128.879 96.5607 125.814 97.4027 122.617 97.4027C118.715 97.4027 114.813 97.4027 110.911 97.4027C106.603 97.4027 102.294 97.4027 97.9863 97.4027C93.5143 97.4027 89.1392 96.3044 86.079 92.8159C84.4404 93.7439 82.7264 94.5186 80.9973 95.131C74.4604 97.4462 65.3294 98.1724 58.4218 97.4123C23.8212 93.6054 16.7796 60.2689 33.8023 34.1924C48.2537 12.0548 78.8193 5.51584 104.027 5.49999C104.027 5.49999 109.219 12.0829 113.027 15.5C116.834 18.9171 122.027 23 122.027 23C122.027 23 116.432 26.5592 112.527 29C108.622 31.4408 103.527 35.5 103.527 35.5C103.527 35.5 123.527 33 143.925 36.4661Z" fill="#1C1B18"/>
<path d="M109.148 74.1612C110.266 70.4098 110.985 67.906 111.314 66.667C111.652 65.4194 111.981 64.0159 112.31 62.4649C112.64 60.9055 113.004 58.8782 113.411 56.3743C113.818 53.8705 114.095 52.2934 114.234 51.6524C114.381 51.0113 114.659 50.4829 115.074 50.0757C115.49 49.6685 116.036 49.4431 116.721 49.4C117.414 49.3654 118.704 49.3392 120.619 49.3392C122.534 49.3392 123.955 49.3654 124.882 49.4C125.818 49.4431 126.45 49.7984 126.779 50.4568C127.109 51.1155 127.109 52.5622 126.788 54.7888C126.467 57.0069 126.069 59.3285 125.593 61.7546C125.125 64.1716 124.674 66.2425 124.25 67.9579C123.825 69.6734 123.435 71.1809 123.08 72.463C122.725 73.7451 122.378 74.6723 122.04 75.2441C121.702 75.8071 121.287 76.3098 120.784 76.7515C120.29 77.1934 119.779 77.4361 119.259 77.4795C118.748 77.5226 117.336 77.5746 115.04 77.6526C112.735 77.7307 111.219 77.7133 110.491 77.5918C109.764 77.4706 109.313 77.1762 109.14 76.717C108.958 76.249 108.906 75.7468 108.967 75.2007C109.036 74.6634 109.096 74.317 109.148 74.1612ZM94.4544 81.6293C94.3159 81.8804 94.2205 82.461 94.1686 83.3621C94.1252 84.2719 94.4198 85.1122 95.0697 85.8747C95.728 86.6458 97.1747 87.0354 99.4102 87.0354C101.654 87.0354 106.038 87.0354 112.553 87.0354C119.06 87.0354 123.028 87.0354 124.458 87.0354C125.878 87.0354 127.23 86.6631 128.529 85.9267C129.82 85.1903 130.877 84.3584 131.7 83.414C132.523 82.4784 133.277 80.9536 133.97 78.8309C134.663 76.717 135.391 74.2478 136.153 71.4059C136.916 68.5728 137.661 65.1679 138.389 61.1913C139.116 57.2146 139.619 53.3941 139.896 49.7377C140.174 46.0728 139.758 43.6905 138.64 42.5987C137.522 41.507 135.633 40.9267 132.957 40.866C130.279 40.7968 126.199 40.7621 120.706 40.7621C115.222 40.7621 111.496 40.7968 109.538 40.866C107.589 40.9267 106.064 41.2905 104.972 41.9576C103.881 42.6161 103.205 43.4825 102.954 44.5569C102.702 45.631 102.339 48.2217 101.862 52.3368C101.386 56.4435 100.883 59.7876 100.355 62.3611C99.8174 64.9341 99.2545 67.2472 98.6564 69.3008C98.0499 71.3627 96.6552 75.4694 94.4544 81.6293Z" fill="white"/>
<path fill-rule="evenodd" clip-rule="evenodd" d="M91.0904 44.1386L69.4697 44.1597C66.8959 44.1623 65.1881 43.7067 64.4333 46.1884C63.5039 49.242 62.231 54.0237 61.4367 57.4109C60.7195 60.4714 60.7872 60.819 63.642 60.8264L74.7517 60.8563C75.5585 60.8581 75.9786 61.3842 75.768 62.2054L73.6655 70.3981C73.6272 70.5475 73.644 70.5778 73.4925 70.6215C67.4324 72.3654 60.6654 71.0255 56.5763 67.9745C46.9891 60.8216 50.844 39.3493 76.4985 33.0134C87.5938 30.2729 105.074 31.2876 117.573 31.2876C128.02 31.2876 125.736 30.7857 134.52 31.298L147.046 21.6321L139.702 13.6703L98.9871 14.5635C72.7445 14.5601 54.0033 21.65 42.8184 38.7833C30.3993 57.8074 32.1016 84.0036 60.31 87.1072C66.0612 87.7402 73.8264 87.0368 78.6742 85.3199C82.9665 83.7995 87.874 80.4845 89.018 76.0376C89.5535 73.9554 93.2853 60.4254 95.5719 51.6265C97.8203 42.9766 99.1439 44.1306 91.0904 44.1386Z" fill="white"/>
<path fill-rule="evenodd" clip-rule="evenodd" d="M124.918 37.9202C123.657 36.6779 122.96 35.1341 122.96 33.4263C122.96 31.3518 124.069 29.6127 125.833 28.3687L137.133 20.3953C135.369 19.0693 133.67 17.6501 132.056 16.25C129.513 14.0452 124.777 9.91881 124.777 6.43732C124.777 4.66948 125.55 3.08823 126.925 1.86384C128.267 0.668526 129.94 3.8147e-06 131.808 3.8147e-06C133.88 3.8147e-06 135.641 0.881809 137.005 2.29507C141.095 6.53288 146.428 11.466 151.933 14.1065C154.326 15.2541 156.093 17.128 156.093 19.7188C156.093 21.6546 155.06 23.3191 153.56 24.61C147.442 29.8753 140.849 34.6531 133.806 38.8194C132.624 39.5191 131.302 39.9733 129.885 39.9733C127.953 39.9733 126.222 39.231 124.918 37.9202Z" fill="#1C1B18"/>
<path d="M153.99 19.4784C153.99 20.3307 153.515 21.1828 152.567 22.0104C146.442 27.2697 140.028 31.8955 133.311 35.8644C132.599 36.2901 131.914 36.5095 131.269 36.5095C130.347 36.5095 129.53 36.1686 128.858 35.4867C128.173 34.8173 127.831 34.0503 127.831 33.186C127.831 32.2365 128.331 31.4087 129.332 30.6904L144.308 20.1237C142.017 18.7113 139.185 16.5566 135.826 13.6593C131.704 10.0682 129.649 7.57252 129.649 6.19694C129.649 5.34464 130.004 4.59001 130.729 3.9445C131.453 3.29956 132.27 2.98307 133.192 2.98307C134.153 2.98307 135.01 3.38481 135.787 4.20028C141.648 10.263 146.956 14.4384 151.711 16.7271C153.226 17.4453 153.99 18.3584 153.99 19.4784Z" fill="#C8102E"/>
<path fill-rule="evenodd" clip-rule="evenodd" d="M107.731 38.6244C106.47 37.382 105.772 35.8383 105.772 34.1306C105.772 32.056 106.882 30.317 108.645 29.0729L119.945 21.0996C118.182 19.7735 116.482 18.3544 114.868 16.9542C112.326 14.7495 107.59 10.6231 107.59 7.14143C107.59 5.37372 108.363 3.79234 109.737 2.56794C111.08 1.37277 112.752 0.704258 114.62 0.704258C116.693 0.704258 118.454 1.58606 119.817 2.99932C123.908 7.23671 129.24 12.1703 134.746 14.8108C137.139 15.9584 138.906 17.8322 138.906 20.423C138.906 22.3588 137.872 24.0233 136.372 25.3142C130.254 30.5795 123.661 35.3574 116.619 39.5236C115.436 40.2229 114.115 40.6776 112.697 40.6776C110.766 40.6776 109.034 39.9352 107.731 38.6244Z" fill="#1C1B18"/>
<path d="M135.418 20.423C135.418 21.2753 134.944 22.1272 133.996 22.955C127.871 28.2143 121.456 32.8401 114.739 36.809C114.028 37.2347 113.343 37.4541 112.697 37.4541C111.775 37.4541 110.959 37.1132 110.287 36.4313C109.602 35.7619 109.26 34.9949 109.26 34.1306C109.26 33.1811 109.76 32.3533 110.761 31.6349L125.737 21.0683C123.445 19.6559 120.613 17.5012 117.255 14.6039C113.132 11.0128 111.077 8.51712 111.077 7.1414C111.077 6.28924 111.433 5.53462 112.157 4.88911C112.882 4.24417 113.698 3.92768 114.62 3.92768C115.582 3.92768 116.438 4.32942 117.215 5.14489C123.076 11.2076 128.385 15.383 133.139 17.6717C134.654 18.3899 135.418 19.303 135.418 20.423Z" fill="#003087"/>
<path fill-rule="evenodd" clip-rule="evenodd" d="M89.9858 38.7525C88.7249 37.5102 88.0268 35.9665 88.0268 34.2586C88.0268 32.184 89.1367 30.445 90.8996 29.201L102.2 21.2276C100.437 19.9016 98.7373 18.4828 97.1232 17.0827C94.5808 14.8777 89.8445 10.7511 89.8445 7.2696C89.8445 5.50175 90.6176 3.92079 91.9924 2.6964C93.3344 1.5008 95.0074 0.832279 96.8752 0.832279C98.9478 0.832279 100.708 1.71408 102.072 3.12735C106.163 7.36515 111.495 12.2983 117 14.9388C119.394 16.0864 121.161 17.9602 121.161 20.551C121.161 22.4869 120.127 24.1514 118.627 25.4422C112.509 30.7075 105.917 35.4854 98.8738 39.6519C97.6915 40.3514 96.3699 40.8056 94.9522 40.8056C93.0208 40.8056 91.2889 40.0637 89.9858 38.7525Z" fill="#1C1B18"/>
<path d="M117.673 20.551C117.673 21.4033 117.199 22.2556 116.251 23.0834C110.126 28.3423 103.711 32.9683 96.9936 36.937C96.2826 37.3632 95.5976 37.5821 94.9522 37.5821C94.0303 37.5821 93.2136 37.2412 92.5418 36.5597C91.8568 35.8899 91.5142 35.1229 91.5142 34.2586C91.5142 33.3092 92.0149 32.4813 93.0159 31.7631L107.992 21.1964C105.7 19.7844 102.868 17.6292 99.5096 14.732C95.3867 11.1408 93.332 8.64515 93.332 7.26958C93.332 6.41727 93.6877 5.66264 94.412 5.01713C95.1365 4.37219 95.9533 4.05571 96.8752 4.05571C97.8367 4.05571 98.693 4.45744 99.4701 5.27291C105.331 11.3356 110.64 15.511 115.394 17.7997C116.909 18.5179 117.673 19.4311 117.673 20.551Z" fill="#FFCD00"/>
<path d="M14.0961 120.448H12.6561L11.0561 128H6.00006L9.84006 109.984H8.14406L9.07206 105.6H19.6321C23.7601 105.6 26.2561 108.64 25.3601 112.768C24.7201 115.84 22.4481 118.592 19.3761 119.872L23.8881 127.968H18.0001L14.0961 120.448ZM18.2881 109.856H14.9281L13.6161 115.968H16.9441C18.6081 115.968 20.0481 114.432 20.4001 112.864C20.7201 111.296 19.9521 109.856 18.2881 109.856ZM36.4706 128.544C30.2306 128.544 26.2946 123.456 27.6066 117.248L27.7666 116.416C29.1106 110.208 35.1906 105.12 41.4306 105.12C47.6706 105.12 51.6706 110.176 50.3266 116.416L50.1666 117.248C48.8226 123.488 42.7106 128.544 36.4706 128.544ZM40.4066 109.92C36.4066 109.92 33.5266 113.056 32.7266 116.832C31.9266 120.608 33.4626 123.744 37.4626 123.744C41.4626 123.744 44.4386 120.608 45.2386 116.832C46.0386 113.056 44.4066 109.92 40.4066 109.92ZM53.5416 105.568H64.4216C70.8856 105.568 74.4696 109.92 73.0936 116.416L72.9336 117.248C71.5256 123.808 66.0536 128 59.5896 128H51.1416L54.9816 110.016H52.6136L53.5416 105.568ZM57.1576 123.584H60.5816C64.4536 123.584 67.1736 120.448 67.9416 116.832C68.7096 113.248 67.3336 109.92 63.4296 109.92H60.0376L57.1576 123.584ZM78.9923 123.616L76.6883 128H70.9603L81.2643 110.016H79.7283L80.6563 105.568H89.5843L92.8483 128H87.1523L86.7043 123.616H78.9923ZM85.5203 110.784L81.2003 119.36H86.3203L85.6803 110.784H85.5203ZM98.5416 105.568H109.422C115.886 105.568 119.47 109.92 118.094 116.416L117.934 117.248C116.526 123.808 111.054 128 104.59 128H96.1416L99.9816 110.016H97.6136L98.5416 105.568ZM102.158 123.584H105.582C109.454 123.584 112.174 120.448 112.942 116.832C113.71 113.248 112.334 109.92 108.43 109.92H105.038L102.158 123.584ZM121.426 110.016L122.354 105.568H139.154L138.226 109.984H128.178L127.186 114.688H135.25L134.29 119.104H126.226L125.298 123.552H135.346L134.418 127.968H124.37L124.338 128H119.282L123.122 110.016H121.426ZM147.471 120.448H146.031L144.431 128H139.375L143.215 109.984H141.519L142.447 105.6H153.007C157.135 105.6 159.631 108.64 158.735 112.768C158.095 115.84 155.823 118.592 152.751 119.872L157.263 127.968H151.375L147.471 120.448ZM151.663 109.856H148.303L146.991 115.968H150.319C151.983 115.968 153.423 114.432 153.775 112.864C154.095 111.296 153.327 109.856 151.663 109.856ZM169.846 128.544C163.606 128.544 159.67 123.456 160.982 117.248L161.142 116.416C162.486 110.208 168.566 105.12 174.806 105.12C181.046 105.12 185.046 110.176 183.702 116.416L183.542 117.248C182.198 123.488 176.086 128.544 169.846 128.544ZM173.782 109.92C169.782 109.92 166.902 113.056 166.102 116.832C165.302 120.608 166.838 123.744 170.838 123.744C174.838 123.744 177.814 120.608 178.614 116.832C179.414 113.056 177.782 109.92 173.782 109.92Z" fill="white" stroke="black" stroke-width="4" stroke-linejoin="round" paint-order="stroke"/>
</svg>
